<svg width="65" height="32" viewBox="0 0 65 32" fill="none" xmlns="http://www.w3.org/2000/svg">
<path d="M24.4443 14.0334C24.4443 21.4817 12.9443 29.3954 12.9443 29.3954C12.9443 29.3954 1.44434 21.4817 1.44434 14.0334C1.44434 7.51614 6.84711 2.39545 12.9443 2.39545C19.0415 2.39545 24.4443 7.51614 24.4443 14.0334Z" fill="#4F46E5"/>
<path d="M12.9443 29.3954C12.9443 29.3954 24.4443 21.4817 24.4443 14.0334C24.4443 7.51614 19.0415 2.39545 12.9443 2.39545C6.84711 2.39545 1.44434 7.51614 1.44434 14.0334C1.44434 21.4817 12.9443 29.3954 12.9443 29.3954ZM12.9443 29.3954V2.68162" stroke="white" stroke-width="2" stroke-linecap="round" stroke-linejoin="round"/>
<circle cx="13" cy="15" r="3.5" fill="#EEF2FF" stroke="white"/>
<path d="M31.8601 25.2216C31.2976 25.2216 30.8146 25.0227 30.4112 24.625C30.0135 24.2216 29.8146 23.7386 29.8146 23.1761C29.8146 22.6193 30.0135 22.142 30.4112 21.7443C30.8146 21.3466 31.2976 21.1477 31.8601 21.1477C32.4055 21.1477 32.8828 21.3466 33.2919 21.7443C33.701 22.142 33.9055 22.6193 33.9055 23.1761C33.9055 23.5511 33.8089 23.8949 33.6158 24.2074C33.4283 24.5142 33.1811 24.7614 32.8743 24.9489C32.5675 25.1307 32.2294 25.2216 31.8601 25.2216ZM43.9261 11.9091V14.6364H35.8466V11.9091H43.9261ZM37.696 25V10.9631C37.696 10.0142 37.8807 9.22727 38.25 8.60227C38.625 7.97727 39.1364 7.50852 39.7841 7.19602C40.4318 6.88352 41.1676 6.72727 41.9915 6.72727C42.5483 6.72727 43.0568 6.76989 43.517 6.85511C43.983 6.94034 44.3295 7.01705 44.5568 7.08523L43.9091 9.8125C43.767 9.76705 43.5909 9.72443 43.3807 9.68466C43.1761 9.64489 42.9659 9.625 42.75 9.625C42.2159 9.625 41.8438 9.75 41.6335 10C41.4233 10.2443 41.3182 10.5881 41.3182 11.0312V25H37.696ZM46.1442 25V11.9091H49.7749V25H46.1442ZM47.968 10.2216C47.4283 10.2216 46.9652 10.0426 46.5788 9.68466C46.1982 9.32102 46.0078 8.88636 46.0078 8.38068C46.0078 7.88068 46.1982 7.4517 46.5788 7.09375C46.9652 6.73011 47.4283 6.54829 47.968 6.54829C48.5078 6.54829 48.968 6.73011 49.3487 7.09375C49.7351 7.4517 49.9283 7.88068 49.9283 8.38068C49.9283 8.88636 49.7351 9.32102 49.3487 9.68466C48.968 10.0426 48.5078 10.2216 47.968 10.2216ZM63.5753 15.642L60.2514 15.8466C60.1946 15.5625 60.0724 15.3068 59.8849 15.0795C59.6974 14.8466 59.4503 14.6619 59.1435 14.5256C58.8423 14.3835 58.4815 14.3125 58.0611 14.3125C57.4986 14.3125 57.0241 14.4318 56.6378 14.6705C56.2514 14.9034 56.0582 15.2159 56.0582 15.608C56.0582 15.9205 56.1832 16.1847 56.4332 16.4006C56.6832 16.6165 57.1122 16.7898 57.7202 16.9205L60.0895 17.3977C61.3622 17.6591 62.3111 18.0795 62.9361 18.6591C63.5611 19.2386 63.8736 20 63.8736 20.9432C63.8736 21.8011 63.6207 22.554 63.1151 23.2017C62.6151 23.8494 61.9276 24.3551 61.0526 24.7188C60.1832 25.0767 59.1804 25.2557 58.044 25.2557C56.3111 25.2557 54.9304 24.8949 53.902 24.1733C52.8793 23.446 52.2798 22.4574 52.1037 21.2074L55.6747 21.0199C55.7827 21.5483 56.044 21.9517 56.4588 22.2301C56.8736 22.5028 57.4048 22.6392 58.0526 22.6392C58.6889 22.6392 59.2003 22.517 59.5866 22.2727C59.9787 22.0227 60.1776 21.7017 60.1832 21.3097C60.1776 20.9801 60.0384 20.7102 59.7656 20.5C59.4929 20.2841 59.0724 20.1193 58.5043 20.0057L56.2372 19.554C54.9588 19.2983 54.0071 18.8551 53.3821 18.2244C52.7628 17.5937 52.4531 16.7898 52.4531 15.8125C52.4531 14.9716 52.6804 14.2472 53.1349 13.6392C53.5952 13.0312 54.2401 12.5625 55.0696 12.233C55.9048 11.9034 56.8821 11.7386 58.0014 11.7386C59.6548 11.7386 60.956 12.0881 61.9048 12.7869C62.8594 13.4858 63.4162 14.4375 63.5753 15.642Z" fill="#1F2937"/>
</svg>
